<svg xmlns="http://www.w3.org/2000/svg" width="287.0602722167969" height="286.1624755859375" viewBox="-40.8988151550293 -41.17411422729492 287.0602722167969 286.1624755859375"><title>Neo4j Graph Visualization</title><desc>Created using Neo4j (http://www.neo4j.com/)</desc><g class="layer relationships"><g class="relationship" transform="translate(144.6243476488041 215.9883578555647) rotate(250.59900590680644)"><path class="outline" fill="#A5ABB6" stroke="none" d="M 25 0.5 L 32.19371304921229 0.5 L 32.19371304921229 -0.5 L 25 -0.5 Z M 77.75621304921229 0.5 L 84.94992609842458 0.5 L 84.94992609842458 3.5 L 91.94992609842458 0 L 84.94992609842458 -3.5 L 84.94992609842458 -0.5 L 77.75621304921229 -0.5 Z"/><text text-anchor="middle" pointer-events="none" font-size="8px" fill="#000000" x="54.97496304921229" y="3" transform="rotate(180 54.97496304921229 0)" font-family="sans-serif">ACTED_IN</text></g><g class="relationship" transform="translate(217.1614883896994 141.39928469213848) rotate(197.78049330119427)"><path class="outline" fill="#A5ABB6" stroke="none" d="M 25 0.5 L 37.0996108052947 0.5 L 37.0996108052947 -0.5 L 25 -0.5 Z M 72.8730483052947 0.5 L 84.9726591105894 0.5 L 84.9726591105894 3.5 L 91.9726591105894 0 L 84.9726591105894 -3.5 L 84.9726591105894 -0.5 L 72.8730483052947 -0.5 Z"/><text text-anchor="middle" pointer-events="none" font-size="8px" fill="#000000" x="54.9863295552947" y="3" transform="rotate(180 54.9863295552947 0)" font-family="sans-serif">WROTE</text></g><g class="relationship" transform="translate(201.44672953963547 37.53235231088552) rotate(504.5374307620533)"><path class="outline" fill="#A5ABB6" stroke="none" d="M 25 0.5 L 32.448729576594204 0.5 L 32.448729576594204 -0.5 L 25 -0.5 Z M 78.0112295765942 0.5 L 85.45995915318841 0.5 L 85.45995915318841 3.5 L 92.45995915318841 0 L 85.45995915318841 -3.5 L 85.45995915318841 -0.5 L 78.0112295765942 -0.5 Z"/><text text-anchor="middle" pointer-events="none" font-size="8px" fill="#000000" x="55.229979576594204" y="3" transform="rotate(180 55.229979576594204 0)" font-family="sans-serif">ACTED_IN</text></g><g class="relationship" transform="translate(109.41300697570102 -12.174114142593892) rotate(451.76750878490674)"><path class="outline" fill="#A5ABB6" stroke="none" d="M 25 0.5 L 37.56799412488989 0.5 L 37.56799412488989 -0.5 L 25 -0.5 Z M 73.34143162488989 0.5 L 85.90942574977979 0.5 L 85.90942574977979 3.5 L 92.90942574977979 0 L 85.90942574977979 -3.5 L 85.90942574977979 -0.5 L 73.34143162488989 -0.5 Z"/><text text-anchor="middle" pointer-events="none" font-size="8px" fill="#000000" x="55.45471287488989" y="3" transform="rotate(180 55.45471287488989 0)" font-family="sans-serif">WROTE</text></g><g class="relationship" transform="translate(22.051202374029604 24.167269230218178) rotate(404.23266597940636)"><path class="outline" fill="#A5ABB6" stroke="none" d="M 25 0.5 L 32.1440748358653 0.5 L 32.1440748358653 -0.5 L 25 -0.5 Z M 77.7065748358653 0.5 L 84.8506496717306 0.5 L 84.8506496717306 3.5 L 91.8506496717306 0 L 84.8506496717306 -3.5 L 84.8506496717306 -0.5 L 77.7065748358653 -0.5 Z"/><text text-anchor="middle" pointer-events="none" font-size="8px" fill="#000000" x="54.9253248358653" y="3" font-family="sans-serif">ACTED_IN</text></g><g class="relationship" transform="translate(-11.89881536334897 112.49242596556009) rotate(356.6863565233641)"><path class="outline" fill="#A5ABB6" stroke="none" d="M 25 0.5 L 32.65480095293734 0.5 L 32.65480095293734 -0.5 L 25 -0.5 Z M 78.21730095293734 0.5 L 85.87210190587469 0.5 L 85.87210190587469 3.5 L 92.87210190587469 0 L 85.87210190587469 -3.5 L 85.87210190587469 -0.5 L 78.21730095293734 -0.5 Z"/><text text-anchor="middle" pointer-events="none" font-size="8px" fill="#000000" x="55.43605095293734" y="3" font-family="sans-serif">ACTED_IN</text></g><g class="relationship" transform="translate(40.32745880788283 203.15264296503847) rotate(303.8794750727465)"><path class="outline" fill="#F16667" stroke="none" d="M 25 19 L 48.407875995242335 19 L 48.407875995242335 22 L 92.40787599524234 0 L 48.407875995242335 -22 L 48.407875995242335 -19 L 25 -19 Z"/><text text-anchor="middle" pointer-events="none" font-size="8px" fill="#FFFFFF" x="36.70393799762117" y="3" font-family="sans-serif">DI…</text></g></g><g class="layer nodes"><g class="node" transform="translate(144.6243476488041,215.9883578555647)"><circle class="outline" cx="0" cy="0" r="25" fill="#F79767" stroke="#f36924" stroke-width="2px"/><text text-anchor="middle" pointer-events="none" font-family="sans-serif" dy="1.5625" font-size="25" fill="#FFFFFF"/><text text-anchor="middle" pointer-events="none" y="5" font-size="10px" fill="#FFFFFF" font-family="sans-serif"> Sebastian</text></g><g class="node" transform="translate(105.77621393071881,105.67921172049239)"><circle class="outline" cx="0" cy="0" r="25" fill="#57C7E3" stroke="#23b3d7" stroke-width="2px"/><text text-anchor="middle" pointer-events="none" font-family="sans-serif" dy="1.5625" font-size="25" fill="#FFFFFF"/><text text-anchor="middle" pointer-events="none" font-family="sans-serif" dy="1.5625" font-size="25" fill="#FFFFFF"/><text text-anchor="middle" pointer-events="none" font-family="sans-serif" dy="1.5625" font-size="25" fill="#FFFFFF"/><text text-anchor="middle" pointer-events="none" y="-5" font-size="10px" fill="#FFFFFF" font-family="sans-serif"> Captain</text><text text-anchor="middle" pointer-events="none" y="5" font-size="10px" fill="#FFFFFF" font-family="sans-serif"> America:</text><text text-anchor="middle" pointer-events="none" y="15" font-size="10px" fill="#FFFFFF" font-family="sans-serif"> The Fi…</text></g><g class="node" transform="translate(217.1614883896994,141.39928469213848)"><circle class="outline" cx="0" cy="0" r="25" fill="#F79767" stroke="#f36924" stroke-width="2px"/><text text-anchor="middle" pointer-events="none" font-family="sans-serif" dy="1.5625" font-size="25" fill="#FFFFFF"/><text text-anchor="middle" pointer-events="none" font-family="sans-serif" dy="1.5625" font-size="25" fill="#FFFFFF"/><text text-anchor="middle" pointer-events="none" y="0" font-size="10px" fill="#FFFFFF" font-family="sans-serif"> Stephen</text><text text-anchor="middle" pointer-events="none" y="10" font-size="10px" fill="#FFFFFF" font-family="sans-serif"> McFeely</text></g><g class="node" transform="translate(201.44672953963547,37.53235231088552)"><circle class="outline" cx="0" cy="0" r="25" fill="#F79767" stroke="#f36924" stroke-width="2px"/><text text-anchor="middle" pointer-events="none" font-family="sans-serif" dy="1.5625" font-size="25" fill="#FFFFFF"/><text text-anchor="middle" pointer-events="none" font-family="sans-serif" dy="1.5625" font-size="25" fill="#FFFFFF"/><text text-anchor="middle" pointer-events="none" y="0" font-size="10px" fill="#FFFFFF" font-family="sans-serif"> Tommy</text><text text-anchor="middle" pointer-events="none" y="10" font-size="10px" fill="#FFFFFF" font-family="sans-serif"> Lee Jon…</text></g><g class="node" transform="translate(109.41300697570102,-12.174114142593892)"><circle class="outline" cx="0" cy="0" r="25" fill="#F79767" stroke="#f36924" stroke-width="2px"/><text text-anchor="middle" pointer-events="none" font-family="sans-serif" dy="1.5625" font-size="25" fill="#FFFFFF"/><text text-anchor="middle" pointer-events="none" y="5" font-size="10px" fill="#FFFFFF" font-family="sans-serif"> Christop…</text></g><g class="node" transform="translate(22.051202374029604,24.167269230218178)"><circle class="outline" cx="0" cy="0" r="25" fill="#F79767" stroke="#f36924" stroke-width="2px"/><text text-anchor="middle" pointer-events="none" font-family="sans-serif" dy="1.5625" font-size="25" fill="#FFFFFF"/><text text-anchor="middle" pointer-events="none" font-family="sans-serif" dy="1.5625" font-size="25" fill="#FFFFFF"/><text text-anchor="middle" pointer-events="none" y="0" font-size="10px" fill="#FFFFFF" font-family="sans-serif"> Hayley</text><text text-anchor="middle" pointer-events="none" y="10" font-size="10px" fill="#FFFFFF" font-family="sans-serif"> Atwell</text></g><g class="node" transform="translate(-11.89881536334897,112.49242596556009)"><circle class="outline" cx="0" cy="0" r="25" fill="#F79767" stroke="#f36924" stroke-width="2px"/><text text-anchor="middle" pointer-events="none" font-family="sans-serif" dy="1.5625" font-size="25" fill="#FFFFFF"/><text text-anchor="middle" pointer-events="none" font-family="sans-serif" dy="1.5625" font-size="25" fill="#FFFFFF"/><text text-anchor="middle" pointer-events="none" y="0" font-size="10px" fill="#FFFFFF" font-family="sans-serif"> Chris</text><text text-anchor="middle" pointer-events="none" y="10" font-size="10px" fill="#FFFFFF" font-family="sans-serif"> Evans</text></g><g class="node" transform="translate(40.32745880788283,203.15264296503847)"><circle class="outline" cx="0" cy="0" r="25" fill="#F79767" stroke="#f36924" stroke-width="2px"/><text text-anchor="middle" pointer-events="none" font-family="sans-serif" dy="1.5625" font-size="25" fill="#FFFFFF"/><text text-anchor="middle" pointer-events="none" font-family="sans-serif" dy="1.5625" font-size="25" fill="#FFFFFF"/><text text-anchor="middle" pointer-events="none" y="0" font-size="10px" fill="#FFFFFF" font-family="sans-serif"> Joe</text><text text-anchor="middle" pointer-events="none" y="10" font-size="10px" fill="#FFFFFF" font-family="sans-serif"> Johnston</text></g></g></svg>